<svg xmlns="http://www.w3.org/2000/svg" style="isolation:isolate" viewBox="0 0 128 42" width="128pt" height="56"><defs><clipPath id="a"><path d="M0 0h128v42H0z"/></clipPath></defs><g clip-path="url(#a)"><circle vector-effect="non-scaling-stroke" cx="72.439" cy="21" r="16.67" fill="#FFF" stroke-width="2" stroke="#FFF" stroke-linecap="square" stroke-miterlimit="3"/><path d="M78.581 26.959c3.66-4.682 7.146-10.662 8.696-13.561A16.61 16.61 0 0 1 89.109 21c0 9.2-7.47 16.67-16.67 16.67-9.2 0-16.67-7.47-16.67-16.67 0-1.733.265-3.404.76-4.974.521.715 1.643 1.184 3.147 1.21h.097c2.828 0 9.091-2.719 9.091-2.719s-1.129 1.663-2.634 3.945c-.995 1.505-1.772 3.386-1.772 4.576 0 .619.207 1.056.704 1.153.073.012.158.024.231.024 1.456 0 3.629-2.33 5.51-4.211-1.06 1.769-2.15 4.18-2.794 6.473q-.375 1.407-.484 2.266a9.989 9.989 0 0 0-.096 1.322c0 2.003.765 3.411 2.804 3.411.158 0 .316-.012.485-.024 1.706-.169 3.798-1.885 5.932-4.286q.303-.284 1.831-2.207zm-.652-.36a58.641 58.641 0 0 0 4.432-6.268c2.678-4.366 3.303-7.28 3.657-8.999-3.025-4.237-7.982-7.002-13.579-7.002-7.368 0-13.626 4.791-15.826 11.425.269.394.76.784 1.583 1.069.254.084.558.121.898.121 3.532 0 11.372-4.078 12.283-4.078.036 0 .06 0 .072.012.158.121.268.243.268.449 0 .364-.352.995-1.445 2.452-1.59 2.112-4.151 6.275-4.151 7.185 0 .073.012.134.049.158.012.012.036.012.048.012.668 0 5.316-4.442 6.809-5.887 0 0 .571-.776.971-.776h.037c.158.024.194.291.194.631 0 .558-.121 1.274-.121 1.274-.879.878-2.921 4.883-4.01 8.369q-.286.905-.594 2.378l.005-.003a7.95 7.95 0 0 0-.123 1.296c0 .777.17 1.372.595 1.663.23.158.51.243.813.243 1.349 0 3.334-1.506 5.457-3.792q1.1-1.176 1.678-1.932z" fill-rule="evenodd" fill="#6660E0"/><path d="M16.277 26.019a31.935 31.935 0 0 0-1.132-.306l1.565-.446-.433.752zm25.073 1.976c-.301 2.711-.959 6.816-4.025 7.777-1.098.344-2.289.173-3.374-.131-1.366-.382-2.653-1.019-3.893-1.696-2.134-1.168-4.154-2.533-6.204-3.84-1.832-1.167-3.616-2.497-5.653-3.278.064-.107.118-.197.113-.198.419-.712.839-1.425 1.247-2.099 2.748-.662 8.946-1.782 12.559-4.9 1.438-1.247 2.303-2.902 2.303-4.556 0-3.117-3.104-6.235-11.337-6.553-.573-.026-1.133-.026-1.68-.026-11.427 0-16.721 4.544-18.222 6.338C2.293 15.889 2 17.225 2 18.243c0 .775.177 1.36.394 1.45-.011-.028-.177-.48-.177-1.183 0-1.628.89-4.657 6.629-7.227 3.563-1.604 7.635-2.253 11.339-2.253 4.975 0 9.314 1.158 10.956 2.686.891.826 1.4 1.921 1.4 3.117 0 2.672-2.558 5.879-9.213 7.889 0 0-1.782.496-3.258.942 1.03-1.756 1.348-2.316 2.252-3.767.432-.7 1.4-1.743 1.4-2.493a.633.633 0 0 0-.153-.446c-.394-.458-.75-.611-1.069-.611-.535 0-.891.433-.891.433-.47.776-2.608 4.466-4.593 7.953-.509.089-1.158.217-2.011.382-.687.139-1.183.191-1.616.191-1.209 0-1.858-.433-4.504-.713a9.056 9.056 0 0 0-.789-.038c-1.247 0-1.706.382-1.706.814 0 .484.585 1.031 1.285 1.146.165.025.344.038.535.038 1.375 0 3.283-.586 4.746-.586h.217c.483.026 1.463.242 2.787.611-1.426 2.519-2.584 4.607-2.647 4.836a.726.726 0 0 0-.026.178c0 .623.611 1.578.904 1.616.174 0 1.878-2.789 3.695-5.848a.183.183 0 0 0 .055.031c2.765 1.046 5.246 2.922 7.718 4.51 2.502 1.607 5.083 3.599 7.949 4.485 1.785.551 3.755.63 5.291-.577.86-.676 1.419-2.032 1.832-3.025.628-1.514.714-3.169.894-4.789.033-.294-.243-.29-.275 0zM87.598 22.612l-.266.217c.016.05.016.1.033.133.083-.117.166-.233.233-.35zm-1.048-.465c-.216 0-.465.083-.731.366-.499.549-.798 1.18-.798 1.446 0 .067.016.1.05.117h.016c.15 0 1.114-.732 2.045-1.464-.116-.265-.266-.382-.399-.448-.05-.017-.116-.017-.183-.017zm.216 4.057c2.162-1.297 3.808-3.093 4.622-3.774l.167.066c0 .017-4.672 4.921-6.085 4.921a.45.45 0 0 1-.216-.05c-.067-.05-.1-.149-.1-.266 0-.748 1.197-2.643 2.144-4.039-.016-.067-.033-.117-.049-.167l-.399.316c-.832.682-2.162 1.696-2.528 1.762h-.099c-.349 0-.848-.233-.848-.914v-.033c0-.748.798-2.527 1.945-2.86.183-.049.333-.066.482-.066.25 0 .449.066.615.166l.017.017c.382.249.648.797.798 1.246.332-.249.648-.498.931-.715.183-.249.299-.415.299-.415.183-.282.382-.399.565-.399.3 0 .516.316.516.715v.116c0 .017-2.361 3.259-2.777 4.373z" fill="#FFF"/><path d="M92.252 20.169a.33.33 0 0 1 .183-.05c.316 0 .831.299.964.631v.017c0 .233-1.097 1.463-1.097 1.53.083 0 .832-.748 1.43-1.114.316-.183.582-.25.798-.25.299 0 .532.117.715.167.233.083.316.166.499.166.083 0 .166-.017.299-.05.116-.033.2-.05.266-.05.233 0 .316.117.316.117s-.05-.017-.133-.017c-.117 0-.266.017-.499.116a.651.651 0 0 1-.249.05c-.283 0-.599-.133-1.015-.133-.166 0-.365.017-.581.1-.848.299-2.876 2.793-3.225 3.042a1.06 1.06 0 0 1-.599.183c-.233 0-.466-.1-.566-.316a.339.339 0 0 1-.033-.149c0-.532.782-1.729 1.181-2.295.449-.631.881-1.413 1.346-1.695z" fill="#FFF"/><g style="isolation:isolate" fill="#FFF"><path d="M55.739 17.63c.493 0 .77.462.77.817 0 .138-.046.261-.123.323-.323.262-.508.17-1.14.724a8.548 8.548 0 0 0-.509.57c1.896-.138 4.561-.354 5.517-.354.2 0 .323.015.354.031a.195.195 0 0 1 .062.139c0 .308-.524.97-.74 1.063-.154.061-.262.061-.323.061h-.062s-.339-.539-1.479-.631c-.124-.016-.262-.016-.447-.016-.786 0-2.08.077-3.251.17-1.372 1.741-3.729 5.008-4.13 5.67-.062.092-.077.154-.077.2 0 .047.015.062.062.062.215 0 .863-.37 1.633-.832 1.248-.724 2.219-1.449 2.296-1.495.015-.015.031-.015.046-.015.046 0 .077.046.077.046-.739.678-2.819 2.496-4.376 2.805-.123.03-.216.03-.308.03-.478 0-.401-.385-.447-.709v-.015c0-.2.432-1.032.632-1.34a266.547 266.547 0 0 1 3.051-4.3c-.432.031-.771.047-.94.047-.786.031-1.156.123-1.464.154-.324.031-.971.215-1.171.447-.108.123-.2.154-.262.154s-.108-.031-.108-.031-.092-.293-.092-.586c0-.169.031-.339.138-.431.201-.185 1.418-.2 2.528-.2h1.34c.092 0 .216-.016.37-.016l.447-.616c.292-.401.416-.509.955-1.202.539-.709 1.032-.709 1.032-.709.046-.015.093-.015.139-.015z"/><path d="M46.633 21.96a.309.309 0 0 1 .169-.047c.293 0 .771.278.894.586v.015c0 .216-1.017 1.356-1.017 1.418.077 0 .77-.694 1.325-1.032.293-.17.539-.232.74-.232.277 0 .493.108.662.155.216.077.293.154.463.154.077 0 .154-.016.277-.047a.981.981 0 0 1 .246-.046c.216 0 .293.108.293.108s-.046-.015-.123-.015c-.108 0-.247.015-.462.107a.615.615 0 0 1-.231.047c-.262 0-.555-.124-.94-.124-.154 0-.339.016-.54.093-.785.277-2.665 2.589-2.989 2.82a.988.988 0 0 1-.555.169c-.215 0-.431-.092-.523-.293a.296.296 0 0 1-.031-.138c0-.493.724-1.603 1.094-2.127.416-.585.816-1.309 1.248-1.571z"/><path d="M43.536 23.285c0-.077-.046-.139-.139-.139-.015 0-.046 0-.077.015-.385.108-.801.601-.801.601.755-.015 1.017-.308 1.017-.477zm-2.28 2.357c0 .124.076.154.154.17.231 0 3.698-1.772 3.698-1.772l.2.015s-3.436 1.911-4.068 2.157a.866.866 0 0 1-.277.047c-.309 0-.601-.185-.601-.601 0-.37.216-.925.832-1.68.786-.955 1.541-1.294 2.065-1.294.446 0 .739.246.739.539 0 .062-.015.108-.031.17-.262.724-1.725.785-1.725.785-.771.894-.986 1.28-.986 1.464zM41.456 18.369c-.154 0-.431.093-.801.555-.57.724-3.56 5.224-3.56 5.224s1.079-1.31 2.204-1.31c.061 0 .123 0 .185.015.447.062.647.509.647 1.079 0 .94-.555 2.188-1.449 2.373a1.98 1.98 0 0 1-.4.046c-.909 0-1.033-.816-1.033-1.279 0-.169.016-.293.016-.293s.061-.046.092-.046.047.016.047.062v.092c0 .339.2.832.462.894.031 0 .061.015.077.015.431 0 .986-.616.986-1.279v-.03c-.015-.355-.169-.601-.508-.601-.37 0-.94.292-1.773 1.109 0 0-1.448 2.419-1.556 2.666-.061.154-.061.262-.061.323v.062s-.817-.216-.817-.77a.6.6 0 0 1 .077-.308c.385-.802 2.542-4.531 3.097-5.363.555-.847 1.202-1.895 1.526-2.357.323-.478 1.047-1.202 1.355-1.526.108-.108.262-.154.432-.154.37 0 .801.247.878.832 0 0-.046-.031-.123-.031zM33.736 24.086c.031-.061.031-.108.031-.139 0-.061-.031-.092-.077-.092-.154 0-.431.185-.647.401-.339.354-.447.955-.447.955s.986-.709 1.14-1.125zm-.169.894c-.462.524-.971 1.186-1.649 1.186-.046 0-.108-.015-.154-.015-.431-.077-.739-.401-.739-.925 0-.354.138-.801.477-1.309.817-1.249 1.649-1.572 2.342-1.618h.047c.493 0 .678.416.678.801 0 .138-.031.262-.062.37l-.016.046c.216.108.447.139.663.139.416 0 .786-.139.786-.139l.092.031a1.97 1.97 0 0 1-1.001.293c-.262 0-.478-.062-.647-.124-.124.17-.231.17-.231.17s-.093.539-.586 1.094z"/></g><path d="M97.954 20.967c.316 0 .615.083.682.233v.033c0 .365-1.297 1.828-1.297 1.828s.881-.665 1.829-1.346c.499-.349.881-.499 1.18-.499.267 0 .45.133.566.349.016.033.016.067.016.1 0 .549-1.197 2.028-1.197 2.178v.017c.017.016.05.033.083.033.2 0 .665-.2 1.38-.665.765-.482 1.181-.715 1.264-.715.016 0 .016 0 .016.016-.016.067-2.56 1.912-3.507 1.912-.117 0-.2-.016-.266-.083a.534.534 0 0 1-.117-.366c0-.665.765-1.729.765-1.895 0-.016-.017-.016-.017-.016h-.033c-.316.116-2.992 2.51-2.992 2.51h-.05c-.1 0-.416-.017-.715-.233-.033-.016-.05-.066-.05-.116 0-.615 1.679-2.959 1.679-2.959.133-.233.466-.316.781-.316z" fill="#FFF"/><path d="M104.887 21.598c0-.083-.05-.149-.15-.149-.016 0-.05 0-.083.017-.416.116-.865.648-.865.648.815-.017 1.098-.333 1.098-.516zm-2.461 2.544c0 .133.083.166.167.183.249 0 3.99-1.912 3.99-1.912l.216.017s-3.707 2.061-4.389 2.327c-.1.034-.2.05-.299.05-.333 0-.649-.2-.649-.648 0-.399.233-.998.898-1.812.848-1.031 1.662-1.397 2.228-1.397.482 0 .798.266.798.582 0 .066-.017.116-.033.183-.283.781-1.863.848-1.863.848-.831.964-1.064 1.38-1.064 1.579z" fill="#FFF"/><path d="M111.919 15.497c.133 0 .299.05.499.166.399.25.499.831.499 1.014v.067c-.017 0-.017-.017-.017-.017-.017-.033-.067-.05-.117-.05-.166 0-.482.134-.897.532-.582.532-3.575 4.805-3.575 4.805.632-.548 1.38-.848 1.879-.848.316 0 .516.117.516.383v.049c-.067.715-2.328 1.547-2.328 1.813.016.149.15.216.382.216.183 0 .432-.034.748-.117.732-.183 2.594-1.13 2.594-1.13l.116.083s-2.976 1.729-4.007 1.729c-.116 0-.199-.017-.265-.067-.2-.166-.266-.349-.266-.515 0-.349.249-.648.249-.648.881-.316 1.313-.815 1.313-1.048 0-.083-.033-.116-.133-.116-.066 0-.116 0-.199.033-.682.249-2.361 2.776-2.876 3.009a.636.636 0 0 1-.233.05c-.332 0-.465-.382-.532-.565v-.017c0-.316 2.195-3.391 2.776-4.089.616-.732.865-1.414 1.214-1.763.366-.349.482-.449.715-.814.233-.383 1.38-1.929 1.38-1.929.182-.116.349-.216.565-.216z" fill="#FFF"/><path d="M114.213 21.465c.033-.016.067-.016.083-.016.1 0 .15.067.15.149 0 .184-.283.499-1.097.516 0 0 .448-.532.864-.649zm11.759 1.255c-.72-.893-1.641-1.592-2.795-1.698-1.221-.112-2.459.225-3.567.685-2.405 1.001-4.816 3.093-7.55 2.586h-.001c-.043-.025-.074-.07-.074-.151 0-.199.233-.615 1.064-1.58 0 0 1.58-.066 1.863-.847.017-.066.032-.117.032-.182 0-.317-.315-.583-.797-.583-.566 0-1.381.365-2.228 1.396-.665.815-.898 1.414-.898 1.813 0 .405.14.565.426.731 2.388.84 5.103-1.284 7.227-2.268 1.205-.557 2.469-1.117 3.807-1.238 1.35-.121 2.485.467 3.32 1.505.097.12.266-.05.171-.169z" fill="#FFF"/></g></svg>