<svg id="namelogo" xmlns="http://www.w3.org/2000/svg" viewBox="0 -10 2120 600" width="2120" height="582" class="a"><style>.a{isolation:isolate;}.b{fill:rgb(255,240,224);}</style><circle vector-effect="non-scaling-stroke" cx="1203.6" cy="291.7" r="283.6" style="fill:rgb(255,240,224);stroke-width:4;stroke:rgb(255,240,224)"/><path d="M1308.1 393.1C1370.4 313.4 1429.7 211.7 1456.1 162.3L1456.1 162.3C1476 201.1 1487.2 245.1 1487.2 291.7 1487.2 448.2 1360.1 575.3 1203.6 575.3 1047 575.3 919.9 448.2 919.9 291.7 919.9 262.2 924.4 233.8 932.9 207.1L932.9 207.1C941.7 219.2 960.8 227.2 986.4 227.6L988.1 227.6C1036.2 227.6 1142.8 181.4 1142.8 181.4 1142.8 181.4 1123.6 209.7 1097.9 248.5 1081 274.1 1067.8 306.1 1067.8 326.4 1067.8 336.9 1071.3 344.3 1079.8 346 1081 346.2 1082.5 346.4 1083.7 346.4 1108.5 346.4 1145.4 306.7 1177.5 274.7 1159.4 304.9 1140.9 345.9 1129.9 384.9 1129.9 384.9 1129.9 384.9 1129.9 384.9Q1123.5 408.8 1121.7 423.4 1121.7 423.4 1121.7 423.4C1120.6 431.3 1120 438.8 1120 445.9 1120 480 1133.1 504 1167.8 504 1170.4 504 1173.1 503.8 1176 503.6 1205 500.7 1240.6 471.5 1276.9 430.6 1276.9 430.6 1276.9 430.6 1276.9 430.6L1276.9 430.6Q1282.1 425.8 1308.1 393.1L1308.1 393.1ZM1297 387C1297 387 1297 387 1297 387 1323.1 355 1349.3 318 1372.4 280.3 1418 206 1428.6 156.4 1434.6 127.2 1383.2 55.1 1298.8 8 1203.6 8 1078.2 8 971.7 89.6 934.3 202.4 938.9 209.1 947.2 215.8 961.2 220.6 965.6 222.1 970.7 222.7 976.5 222.7 1036.6 222.7 1170 153.3 1185.5 153.3 1186.1 153.3 1186.5 153.3 1186.7 153.5 1189.4 155.6 1191.3 157.6 1191.3 161.1 1191.3 167.3 1185.3 178.1 1166.7 202.9 1139.7 238.8 1096.1 309.6 1096.1 325.1 1096.1 326.4 1096.3 327.4 1096.9 327.8 1097.1 328 1097.5 328 1097.7 328 1109.1 328 1188.2 252.4 1213.6 227.9 1213.6 227.9 1223.3 214.6 1230.1 214.6L1230.7 214.6C1233.4 215 1234 219.6 1234 225.4 1234 234.9 1232 247.1 1232 247.1 1217 262 1182.3 330.1 1163.8 389.5 1163.8 389.5 1163.8 389.5 1163.8 389.5Q1163.8 389.5 1163.8 389.5 1158.9 404.9 1153.6 429.9C1153.7 429.9 1153.7 429.9 1153.7 429.9 1152.4 437.9 1151.6 445.3 1151.6 451.9 1151.6 465.2 1154.5 475.3 1161.8 480.2 1165.7 482.9 1170.4 484.4 1175.6 484.4 1198.5 484.4 1232.3 458.7 1268.4 419.8L1268.4 419.8 1268.4 419.8C1268.4 419.8 1268.4 419.8 1268.4 419.8L1268.4 419.8Q1287.2 399.8 1297 387Z" fill="rgb(102,96,224)"/><path d="M247.9 377.1C235.8 373.6 228.7 371.9 228.7 371.9L255.3 364.3 247.9 377.1ZM674.6 410.7C669.5 456.8 658.3 526.7 606.1 543 587.4 548.9 567.1 546 548.7 540.8 525.4 534.3 503.5 523.5 482.4 512 446.1 492.1 411.7 468.9 376.9 446.6 345.7 426.8 315.3 404.1 280.7 390.8 281.8 389 282.7 387.5 282.6 387.5 289.7 375.4 296.9 363.2 303.8 351.7 350.6 340.5 456 321.4 517.5 268.4 542 247.2 556.7 219 556.7 190.9 556.7 137.8 503.9 84.8 363.8 79.4 354 78.9 344.5 78.9 335.2 78.9 140.8 78.9 50.7 156.2 25.1 186.8 10 204.7 5 227.5 5 244.8 5 258 8 267.9 11.7 269.4 11.5 269 8.7 261.3 8.7 249.3 8.7 221.6 23.8 170.1 121.5 126.3 182.1 99.1 251.4 88 314.4 88 399.1 88 472.9 107.7 500.9 133.7 516 147.8 524.7 166.4 524.7 186.8 524.7 232.2 481.2 286.8 367.9 321 367.9 321 337.6 329.4 312.5 337 330 307.1 335.4 297.6 350.8 272.9 358.2 261 374.6 243.3 374.6 230.5 374.6 227.7 374 225.1 372 222.9 365.3 215.1 359.2 212.5 353.8 212.5 344.7 212.5 338.7 219.9 338.7 219.9 330.7 233.1 294.3 295.9 260.5 355.2 251.8 356.7 240.8 358.9 226.3 361.7 214.6 364.1 206.2 365 198.8 365 178.2 365 167.2 357.6 122.1 352.8 117.2 352.4 112.6 352.2 108.7 352.2 87.5 352.2 79.7 358.7 79.7 366 79.7 374.3 89.7 383.6 101.6 385.5 104.4 386 107.4 386.2 110.7 386.2 134.1 386.2 166.5 376.2 191.4 376.2L195.1 376.2C203.3 376.6 220 380.3 242.5 386.6 218.3 429.5 198.6 465 197.5 468.9 197.3 469.8 197.1 470.8 197.1 471.9 197.1 482.5 207.5 498.8 212.4 499.4 215.4 499.4 244.4 452 275.3 399.9 275.6 400.1 275.9 400.3 276.2 400.4 323.3 418.2 365.5 450.2 407.6 477.2 450.2 504.5 494.1 538.4 542.8 553.5 573.2 562.9 606.7 564.2 632.9 543.7 647.5 532.2 657 509.1 664 492.2 674.7 466.4 676.2 438.3 679.3 410.7 679.8 405.7 675.1 405.8 674.6 410.7Z" class="b"/><path d="M1461.5 319.1L1457 322.8C1457.3 323.7 1457.3 324.5 1457.6 325.1 1459 323.1 1460.4 321.1 1461.5 319.1ZM1443.7 311.2C1440 311.2 1435.8 312.6 1431.3 317.4 1422.8 326.8 1417.7 337.5 1417.7 342 1417.7 343.2 1418 343.7 1418.5 344L1418.8 344C1421.4 344 1437.8 331.6 1453.6 319.1 1451.6 314.6 1449.1 312.6 1446.8 311.5 1446 311.2 1444.8 311.2 1443.7 311.2ZM1447.4 380.2C1484.2 358.2 1512.2 327.6 1526 316L1528.9 317.2C1528.9 317.4 1449.4 400.9 1425.3 400.9 1423.9 400.9 1422.8 400.6 1421.6 400 1420.5 399.2 1419.9 397.5 1419.9 395.5 1419.9 382.8 1440.3 350.5 1456.4 326.8 1456.2 325.6 1455.9 324.8 1455.6 323.9L1448.8 329.3C1434.6 340.9 1412 358.2 1405.8 359.3L1404.1 359.3C1398.2 359.3 1389.7 355.3 1389.7 343.7L1389.7 343.2C1389.7 330.4 1403.3 300.2 1422.8 294.5 1425.9 293.7 1428.4 293.4 1431 293.4 1435.2 293.4 1438.6 294.5 1441.4 296.2L1441.7 296.5C1448.2 300.7 1452.8 310.1 1455.3 317.7 1461 313.5 1466.3 309.2 1471.1 305.5 1474.3 301.3 1476.2 298.5 1476.2 298.5 1479.4 293.7 1482.7 291.7 1485.9 291.7 1490.9 291.7 1494.6 297.1 1494.6 303.9L1494.6 305.8C1494.6 306.1 1454.5 361.3 1447.4 380.2Z" class="b"/><path d="M1540.7 277.5C1541.6 277 1542.7 276.7 1543.8 276.7 1549.2 276.7 1558 281.8 1560.2 287.4L1560.2 287.7C1560.2 291.7 1541.6 312.6 1541.6 313.8 1543 313.8 1555.7 301 1565.9 294.8 1571.3 291.7 1575.8 290.6 1579.5 290.6 1584.6 290.6 1588.5 292.5 1591.7 293.4 1595.6 294.8 1597 296.2 1600.1 296.2 1601.6 296.2 1603 295.9 1605.2 295.4 1607.2 294.8 1608.6 294.5 1609.8 294.5 1613.7 294.5 1615.1 296.5 1615.1 296.5 1615.1 296.5 1614.3 296.2 1612.9 296.2 1610.9 296.2 1608.3 296.5 1604.4 298.2 1603 298.8 1601.6 299 1600.1 299 1595.3 299 1590 296.8 1582.9 296.8 1580.1 296.8 1576.7 297.1 1573 298.5 1558.5 303.6 1524 346 1518.1 350.2 1515.3 352.2 1511.6 353.4 1507.9 353.4 1504 353.4 1500 351.7 1498.3 348 1498 347.4 1497.7 346.6 1497.7 345.4 1497.7 336.4 1511 316 1517.8 306.4 1525.5 295.7 1532.8 282.4 1540.7 277.5Z" class="b"/><g class="a"><path d="M919.4 234.3C927.8 234.3 932.5 242.2 932.5 248.2 932.5 250.6 931.7 252.7 930.4 253.7 924.9 258.2 921.8 256.6 911 266.1 909.2 267.9 906 271.3 902.4 275.8 934.6 273.4 980 269.7 996.2 269.7 999.6 269.7 1001.7 270 1002.3 270.3 1002.8 270.8 1003.3 271.6 1003.3 272.6 1003.3 277.9 994.4 289.1 990.7 290.7 988.1 291.8 986.3 291.8 985.2 291.8L984.2 291.8C984.2 291.8 978.4 282.6 959 281 956.9 280.8 954.6 280.8 951.4 280.8 938 280.8 916 282.1 896.1 283.6 872.7 313.3 832.6 368.8 825.8 380.1 824.8 381.7 824.5 382.7 824.5 383.5 824.5 384.3 824.8 384.6 825.6 384.6 829.2 384.6 840.2 378.3 853.3 370.4 874.6 358.1 891.1 345.8 892.4 345 892.7 344.7 892.9 344.7 893.2 344.7 894 344.7 894.5 345.5 894.5 345.5 881.9 357 846.5 388 820.1 393.2 818 393.8 816.4 393.8 814.8 393.8 806.7 393.8 808 387.2 807.2 381.7L807.2 381.4C807.2 378 814.5 363.9 818 358.6 837.9 330 852.6 309.3 869.9 285.5 862.5 286 856.8 286.3 853.9 286.3 840.5 286.8 834.2 288.4 829 288.9 823.5 289.4 812.4 292.6 809 296.5 807.2 298.6 805.6 299.1 804.6 299.1 803.5 299.1 802.7 298.6 802.7 298.6 802.7 298.6 801.2 293.6 801.2 288.6 801.2 285.7 801.7 282.8 803.5 281.3 806.9 278.1 827.7 277.9 846.5 277.9L869.3 277.9C870.9 277.9 873 277.6 875.6 277.6L883.2 267.1C888.2 260.3 890.3 258.5 899.5 246.7 908.7 234.6 917.1 234.6 917.1 234.6 917.8 234.3 918.6 234.3 919.4 234.3Z" class="b"/><path d="M764.5 308C765.3 307.5 766.3 307.2 767.4 307.2 772.3 307.2 780.5 312 782.6 317.2L782.6 317.5C782.6 321.1 765.3 340.5 765.3 341.6 766.6 341.6 778.4 329.8 787.8 324 792.8 321.1 797 320.1 800.4 320.1 805.1 320.1 808.8 321.9 811.7 322.7 815.3 324 816.6 325.3 819.5 325.3 820.8 325.3 822.2 325.1 824.2 324.5 826.1 324 827.4 323.8 828.4 323.8 832.1 323.8 833.4 325.6 833.4 325.6 833.4 325.6 832.6 325.3 831.3 325.3 829.5 325.3 827.1 325.6 823.5 327.2 822.2 327.7 820.8 327.9 819.5 327.9 815.1 327.9 810.1 325.8 803.5 325.8 800.9 325.8 797.8 326.1 794.4 327.4 781 332.1 749 371.5 743.5 375.4 740.9 377.2 737.5 378.3 734.1 378.3 730.4 378.3 726.7 376.7 725.1 373.3 724.9 372.8 724.6 372 724.6 370.9 724.6 362.6 736.9 343.7 743.2 334.8 750.3 324.8 757.1 312.5 764.5 308Z" class="b"/><path d="M711.8 330.6C711.8 329.3 711 328.2 709.4 328.2 709.2 328.2 708.6 328.2 708.1 328.5 701.5 330.3 694.5 338.7 694.5 338.7 707.3 338.4 711.8 333.5 711.8 330.6ZM673 370.7C673 372.8 674.3 373.3 675.6 373.6 679.5 373.6 738.5 343.4 738.5 343.4L741.9 343.7C741.9 343.7 683.5 376.2 672.7 380.4 671.1 380.9 669.6 381.2 668 381.2 662.7 381.2 657.8 378 657.8 370.9 657.8 364.7 661.4 355.2 671.9 342.4 685.3 326.1 698.1 320.3 707.1 320.3 714.7 320.3 719.6 324.5 719.6 329.5 719.6 330.6 719.4 331.4 719.1 332.4 714.7 344.7 689.7 345.8 689.7 345.8 676.6 361 673 367.5 673 370.7Z" class="b"/><path d="M676.4 246.9C673.8 246.9 669 248.5 662.7 256.4 653 268.7 602.2 345.3 602.2 345.3 602.2 345.3 620.5 323 639.7 323 640.7 323 641.8 323 642.8 323.2 650.4 324.3 653.8 331.9 653.8 341.6 653.8 357.6 644.4 378.8 629.2 382 626.6 382.5 624.5 382.7 622.4 382.7 606.9 382.7 604.8 368.8 604.8 361 604.8 358.1 605.1 356 605.1 356 605.1 356 606.1 355.2 606.6 355.2 607.2 355.2 607.4 355.5 607.4 356.3L607.4 357.8C607.4 363.6 610.8 372 615.3 373 615.8 373 616.3 373.3 616.6 373.3 623.9 373.3 633.4 362.8 633.4 351.5L633.4 351C633.1 345 630.5 340.8 624.7 340.8 618.4 340.8 608.7 345.8 594.6 359.7 594.6 359.7 569.9 400.8 568.1 405 567 407.7 567 409.5 567 410.5L567 411.6C567 411.6 553.2 407.9 553.2 398.5 553.2 396.9 553.4 395.1 554.5 393.2 561 379.6 597.7 316.1 607.2 302 616.6 287.6 627.6 269.7 633.1 261.9 638.6 253.7 650.9 241.4 656.2 235.9 658 234.1 660.6 233.3 663.5 233.3 669.8 233.3 677.2 237.5 678.5 247.5 678.5 247.5 677.7 246.9 676.4 246.9Z" class="b"/><path d="M545 344.2C545.6 343.2 545.6 342.4 545.6 341.8 545.6 340.8 545 340.3 544.2 340.3 541.6 340.3 536.9 343.4 533.2 347.1 527.5 353.1 525.6 363.3 525.6 363.3 525.6 363.3 542.4 351.3 545 344.2ZM542.1 359.4C534.3 368.3 525.6 379.6 514.1 379.6 513.3 379.6 512.3 379.3 511.5 379.3 504.1 378 498.9 372.5 498.9 363.6 498.9 357.6 501.2 350 507 341.3 520.9 320.1 535.1 314.6 546.9 313.8L547.6 313.8C556 313.8 559.2 320.9 559.2 327.4 559.2 329.8 558.7 331.9 558.1 333.7L557.9 334.5C561.5 336.3 565.5 336.9 569.1 336.9 576.2 336.9 582.5 334.5 582.5 334.5L584.1 335C577.8 338.7 572 340 567.1 340 562.6 340 558.9 339 556 337.9 553.9 340.8 552.1 340.8 552.1 340.8 552.1 340.8 550.5 350 542.1 359.4Z" class="b"/></g><path d="M1637.8 291.1C1643.1 291.1 1648.2 292.5 1649.4 295.1L1649.4 295.7C1649.4 301.9 1627.3 326.8 1627.3 326.8 1627.3 326.8 1642.3 315.5 1658.4 303.9 1666.9 297.9 1673.4 295.4 1678.5 295.4 1683 295.4 1686.1 297.6 1688.1 301.3 1688.4 301.9 1688.4 302.4 1688.4 303 1688.4 312.3 1668 337.5 1668 340.1L1668 340.3C1668.3 340.6 1668.9 340.9 1669.4 340.9 1672.8 340.9 1680.8 337.5 1692.9 329.6 1705.9 321.4 1713 317.4 1714.4 317.4 1714.7 317.4 1714.7 317.4 1714.7 317.7 1714.4 318.8 1671.1 350.2 1655 350.2 1653 350.2 1651.6 350 1650.5 348.8 1649.1 347.1 1648.5 345.2 1648.5 342.6 1648.5 331.3 1661.5 313.2 1661.5 310.4 1661.5 310.1 1661.2 310.1 1661.2 310.1L1660.7 310.1C1655.3 312.1 1609.8 352.8 1609.8 352.8L1608.9 352.8C1607.2 352.8 1601.8 352.5 1596.7 348.8 1596.2 348.6 1595.9 347.7 1595.9 346.9 1595.9 336.4 1624.5 296.5 1624.5 296.5 1626.7 292.5 1632.4 291.1 1637.8 291.1Z" class="b"/><path d="M1755.7 301.9C1755.7 300.5 1754.9 299.3 1753.2 299.3 1752.9 299.3 1752.3 299.3 1751.8 299.6 1744.7 301.6 1737 310.6 1737 310.6 1750.9 310.4 1755.7 305 1755.7 301.9ZM1713.9 345.2C1713.9 347.4 1715.3 348 1716.7 348.3 1720.9 348.3 1784.6 315.7 1784.6 315.7L1788.2 316C1788.2 316 1725.2 351.1 1713.6 355.6 1711.9 356.2 1710.2 356.5 1708.5 356.5 1702.8 356.5 1697.4 353.1 1697.4 345.4 1697.4 338.7 1701.4 328.5 1712.7 314.6 1727.1 297.1 1741 290.8 1750.6 290.8 1758.8 290.8 1764.2 295.4 1764.2 300.7 1764.2 301.9 1763.9 302.7 1763.6 303.9 1758.8 317.2 1732 318.3 1732 318.3 1717.8 334.7 1713.9 341.8 1713.9 345.2Z" class="b"/><path d="M1875.4 198.1C1877.6 198.1 1880.5 198.9 1883.9 200.9 1890.7 205.1 1892.3 215 1892.3 218.1L1892.3 219.3C1892.1 219.3 1892.1 219 1892.1 219 1891.8 218.4 1890.9 218.1 1890.1 218.1 1887.3 218.1 1881.9 220.4 1874.8 227.2 1864.9 236.2 1814 308.9 1814 308.9 1824.7 299.6 1837.5 294.5 1846 294.5 1851.3 294.5 1854.7 296.5 1854.7 301L1854.7 301.9C1853.6 314 1815.1 328.2 1815.1 332.7 1815.4 335.3 1817.7 336.4 1821.6 336.4 1824.7 336.4 1829 335.8 1834.4 334.4 1846.8 331.3 1878.5 315.2 1878.5 315.2L1880.5 316.6C1880.5 316.6 1829.8 346 1812.3 346 1810.3 346 1808.9 345.7 1807.8 344.9 1804.4 342 1803.2 338.9 1803.2 336.1 1803.2 330.2 1807.5 325.1 1807.5 325.1 1822.5 319.7 1829.8 311.2 1829.8 307.2 1829.8 305.8 1829.3 305.3 1827.6 305.3 1826.4 305.3 1825.6 305.3 1824.2 305.8 1812.6 310.1 1784 353.1 1775.2 357 1773.8 357.6 1772.4 357.9 1771.3 357.9 1765.6 357.9 1763.4 351.4 1762.2 348.3L1762.2 348C1762.2 342.6 1799.6 290.3 1809.5 278.4 1819.9 265.9 1824.2 254.3 1830.1 248.4 1836.3 242.5 1838.3 240.8 1842.3 234.5 1846.2 228 1865.8 201.7 1865.8 201.7 1868.9 199.8 1871.7 198.1 1875.4 198.1Z" class="b"/><path d="M1914.4 299.6C1915 299.3 1915.6 299.3 1915.8 299.3 1917.5 299.3 1918.4 300.5 1918.4 301.9 1918.4 305 1913.6 310.4 1899.7 310.6 1899.7 310.6 1907.3 301.6 1914.4 299.6ZM2114.5 321C2102.3 305.8 2086.6 293.9 2066.9 292.1 2046.2 290.2 2025.1 295.9 2006.3 303.7 1965.3 320.8 1924.3 356.4 1877.8 347.7L1877.8 347.7C1877 347.3 1876.5 346.5 1876.5 345.2 1876.5 341.8 1880.5 334.7 1894.6 318.3 1894.6 318.3 1921.5 317.2 1926.3 303.9 1926.6 302.7 1926.8 301.9 1926.8 300.8 1926.8 295.4 1921.5 290.8 1913.3 290.8 1903.7 290.8 1889.8 297.1 1875.4 314.6 1864.1 328.5 1860.1 338.6 1860.1 345.4 1860.1 352.3 1862.5 355.1 1867.3 357.9 1908 372.2 1954.2 336 1990.3 319.3 2010.8 309.8 2032.3 300.3 2055.1 298.2 2078.1 296.2 2097.4 306.2 2111.6 323.8 2113.2 325.9 2116.1 323 2114.5 321Z" class="b"/></svg>
