<?xml version="1.0" encoding="UTF-8" standalone="no"?><!-- Generator: Gravit.io --><svg xmlns="http://www.w3.org/2000/svg" xmlns:xlink="http://www.w3.org/1999/xlink" style="isolation:isolate" viewBox="0 0 2120 582" width="2120pt" height="582pt"><g><circle vector-effect="non-scaling-stroke" cx="1203.5853372425413" cy="291.6904346637126" r="283.64987970081665" fill="rgb(255,240,224)" stroke-width="4" stroke="rgb(255,240,224)" stroke-linejoin="miter" stroke-linecap="square" stroke-miterlimit="3"/><g><path d=" M 1308.096 393.089 C 1370.371 313.423 1429.695 211.668 1456.073 162.341 L 1456.073 162.341 C 1475.985 201.143 1487.235 245.113 1487.235 291.69 C 1487.235 448.241 1360.136 575.34 1203.585 575.34 C 1047.035 575.34 919.935 448.241 919.935 291.69 C 919.935 262.21 924.443 233.774 932.858 207.057 L 932.858 207.057 C 941.731 219.224 960.827 227.204 986.416 227.646 L 988.068 227.646 C 1036.191 227.646 1142.761 181.382 1142.761 181.382 C 1142.761 181.382 1123.55 209.677 1097.941 248.505 C 1081.007 274.114 1067.789 306.125 1067.789 326.367 C 1067.789 336.898 1071.299 344.336 1079.768 345.987 C 1081.007 346.192 1082.451 346.4 1083.691 346.4 C 1108.474 346.4 1145.445 306.745 1177.453 274.734 C 1159.411 304.85 1140.869 345.872 1129.907 384.888 C 1129.909 384.888 1129.912 384.885 1129.913 384.884 Q 1123.521 408.834 1121.677 423.444 Q 1121.676 423.447 1121.676 423.449 C 1120.618 431.295 1120.039 438.839 1120.039 445.945 C 1120.039 480.022 1133.052 503.98 1167.751 503.98 C 1170.434 503.98 1173.12 503.775 1176.011 503.569 C 1205.026 500.696 1240.635 471.5 1276.934 430.644 C 1276.934 430.644 1276.934 430.644 1276.933 430.644 L 1276.934 430.644 Q 1282.089 425.807 1308.096 393.089 L 1308.096 393.089 Z  M 1296.999 386.956 C 1296.999 386.956 1296.999 386.956 1296.999 386.956 C 1323.107 355.004 1349.264 317.978 1372.418 280.31 C 1417.993 206.016 1428.62 156.424 1434.641 127.178 C 1383.175 55.087 1298.831 8.041 1203.585 8.041 C 1078.213 8.041 971.729 89.556 934.297 202.436 C 938.861 209.143 947.215 215.786 961.22 220.624 C 965.557 222.069 970.72 222.688 976.503 222.688 C 1036.605 222.688 1170.02 153.295 1185.511 153.295 C 1186.127 153.295 1186.544 153.295 1186.748 153.502 C 1189.433 155.566 1191.292 157.632 1191.292 161.143 C 1191.292 167.339 1185.303 178.078 1166.714 202.861 C 1139.659 238.8 1096.082 309.636 1096.082 325.127 C 1096.082 326.367 1096.289 327.4 1096.908 327.811 C 1097.115 328.019 1097.528 328.019 1097.734 328.019 C 1109.093 328.019 1188.194 252.429 1213.596 227.852 C 1213.596 227.852 1223.305 214.634 1230.119 214.634 L 1230.739 214.634 C 1233.424 215.047 1234.044 219.591 1234.044 225.374 C 1234.044 234.873 1231.978 247.058 1231.978 247.058 C 1217.035 262.002 1182.279 330.146 1163.758 389.467 C 1163.758 389.465 1163.757 389.465 1163.756 389.462 Q 1163.755 389.465 1163.755 389.467 Q 1158.878 404.861 1153.641 429.925 C 1153.668 429.909 1153.695 429.893 1153.722 429.877 C 1152.38 437.879 1151.637 445.312 1151.637 451.936 C 1151.637 465.153 1154.531 475.274 1161.758 480.228 C 1165.681 482.915 1170.434 484.36 1175.594 484.36 C 1198.544 484.36 1232.334 458.731 1268.446 419.84 L 1268.446 419.84 L 1268.446 419.84 C 1268.446 419.84 1268.446 419.84 1268.446 419.84 L 1268.446 419.84 Q 1287.168 399.833 1296.999 386.956 Z " fill-rule="evenodd" fill="rgb(102,96,224)"/></g></g><path d=" M 247.94 377.085 C 235.826 373.62 228.676 371.888 228.676 371.888 L 255.31 364.3 L 247.94 377.085 Z  M 674.576 410.711 C 669.456 456.842 658.262 526.702 606.091 543.047 C 587.404 548.9 567.141 545.997 548.672 540.813 C 525.428 534.321 503.526 523.485 482.435 511.964 C 446.124 492.092 411.748 468.862 376.873 446.616 C 345.696 426.76 315.334 404.124 280.676 390.839 C 281.77 389.028 282.69 387.497 282.597 387.465 C 289.731 375.354 296.882 363.223 303.812 351.749 C 350.583 340.494 456.036 321.433 517.528 268.385 C 541.992 247.168 556.713 219.006 556.713 190.86 C 556.713 137.814 503.885 84.767 363.79 79.35 C 354.049 78.913 344.526 78.913 335.207 78.913 C 140.77 78.913 50.695 156.22 25.139 186.755 C 9.981 204.723 5 227.452 5 244.782 C 5 257.972 8.013 267.915 11.697 269.445 C 11.525 268.976 8.685 261.282 8.685 249.324 C 8.685 221.614 23.844 170.082 121.49 126.34 C 182.124 99.052 251.406 88.014 314.427 88.014 C 399.087 88.014 472.928 107.715 500.857 133.708 C 516.015 147.773 524.678 166.398 524.678 186.755 C 524.678 232.213 481.154 286.791 367.912 320.995 C 367.912 320.995 337.595 329.44 312.477 337.027 C 330.008 307.146 335.424 297.609 350.802 272.928 C 358.155 261.016 374.625 243.266 374.625 230.497 C 374.625 227.671 373.969 225.079 372.018 222.909 C 365.304 215.12 359.248 212.513 353.83 212.513 C 344.729 212.513 338.672 219.881 338.672 219.881 C 330.663 233.088 294.29 295.877 260.508 355.213 C 251.843 356.727 240.805 358.899 226.287 361.708 C 214.595 364.079 206.165 364.955 198.796 364.955 C 178.221 364.955 167.183 357.586 122.146 352.823 C 117.166 352.388 112.624 352.187 108.721 352.187 C 87.504 352.187 79.7 358.679 79.7 366.031 C 79.7 374.261 89.66 383.58 101.571 385.53 C 104.38 385.954 107.424 386.173 110.672 386.173 C 134.058 386.173 166.527 376.21 191.428 376.21 L 195.112 376.21 C 203.339 376.649 220.012 380.332 242.538 386.609 C 218.279 429.476 198.579 464.993 197.501 468.894 C 197.282 469.753 197.064 470.83 197.064 471.922 C 197.064 482.524 207.461 498.772 212.441 499.415 C 215.406 499.415 244.396 451.956 275.322 399.909 C 275.588 400.126 275.884 400.3 276.244 400.44 C 323.295 418.235 365.524 450.163 407.58 477.184 C 450.152 504.52 494.081 538.427 542.835 553.491 C 573.214 562.875 606.73 564.213 632.864 543.672 C 647.506 532.182 657.014 509.108 664.039 492.201 C 674.733 466.444 676.2 438.281 679.259 410.711 C 679.822 405.718 675.122 405.779 674.576 410.711 Z " fill="rgb(255,240,224)"/><path d=" M 1461.526 319.128 L 1456.998 322.808 C 1457.282 323.658 1457.282 324.507 1457.565 325.07 C 1458.976 323.089 1460.394 321.11 1461.526 319.128 Z  M 1443.701 311.212 C 1440.023 311.212 1435.785 312.625 1431.254 317.43 C 1422.767 326.769 1417.678 337.518 1417.678 342.042 C 1417.678 343.177 1417.96 343.741 1418.529 344.025 L 1418.808 344.025 C 1421.356 344.025 1437.763 331.579 1453.607 319.128 C 1451.623 314.604 1449.073 312.625 1446.813 311.493 C 1445.963 311.212 1444.835 311.212 1443.701 311.212 Z  M 1447.38 380.234 C 1484.154 358.168 1512.165 327.614 1526.025 316.019 L 1528.857 317.151 C 1528.857 317.43 1449.359 400.884 1425.317 400.884 C 1423.902 400.884 1422.767 400.603 1421.638 400.036 C 1420.507 399.187 1419.943 397.493 1419.943 395.51 C 1419.943 382.78 1440.309 350.532 1456.433 326.769 C 1456.15 325.637 1455.87 324.786 1455.587 323.939 L 1448.794 329.317 C 1434.649 340.912 1412.018 358.168 1405.794 359.301 L 1404.1 359.301 C 1398.158 359.301 1389.667 355.337 1389.667 343.741 L 1389.667 343.177 C 1389.667 330.446 1403.251 300.176 1422.767 294.518 C 1425.882 293.673 1428.428 293.387 1430.971 293.387 C 1435.219 293.387 1438.61 294.518 1441.438 296.216 L 1441.723 296.499 C 1448.227 300.741 1452.758 310.075 1455.301 317.716 C 1460.957 313.476 1466.333 309.229 1471.143 305.549 C 1474.254 301.307 1476.235 298.478 1476.235 298.478 C 1479.35 293.673 1482.739 291.69 1485.852 291.69 C 1490.945 291.69 1494.623 297.064 1494.623 303.855 L 1494.623 305.835 C 1494.623 306.118 1454.452 361.281 1447.38 380.234 Z " fill="rgb(255,240,224)"/><path d=" M 1540.728 277.545 C 1541.578 276.979 1542.706 276.698 1543.841 276.698 C 1549.214 276.698 1557.984 281.789 1560.248 287.445 L 1560.248 287.731 C 1560.248 291.691 1541.578 312.626 1541.578 313.756 C 1542.992 313.756 1555.724 301.024 1565.906 294.801 C 1571.283 291.691 1575.809 290.556 1579.487 290.556 C 1584.576 290.556 1588.535 292.539 1591.65 293.387 C 1595.611 294.801 1597.024 296.216 1600.135 296.216 C 1601.55 296.216 1602.964 295.935 1605.228 295.366 C 1607.209 294.801 1608.627 294.517 1609.755 294.517 C 1613.716 294.517 1615.131 296.5 1615.131 296.5 C 1615.131 296.5 1614.281 296.216 1612.867 296.216 C 1610.887 296.216 1608.341 296.5 1604.379 298.197 C 1602.964 298.762 1601.55 299.043 1600.135 299.043 C 1595.328 299.043 1589.953 296.779 1582.876 296.779 C 1580.05 296.779 1576.658 297.063 1572.977 298.478 C 1558.549 303.572 1524.039 346.004 1518.1 350.247 C 1515.267 352.23 1511.588 353.36 1507.914 353.36 C 1503.953 353.36 1499.992 351.662 1498.292 347.985 C 1498.011 347.42 1497.725 346.571 1497.725 345.439 C 1497.725 336.384 1511.023 316.018 1517.816 306.399 C 1525.454 295.651 1532.804 282.352 1540.728 277.545 Z " fill="rgb(255,240,224)"/><g style="isolation:isolate"><path d=" M 919.42 234.343 C 927.811 234.343 932.529 242.211 932.529 248.242 C 932.529 250.599 931.742 252.696 930.431 253.746 C 924.927 258.203 921.78 256.63 911.029 266.069 C 909.192 267.905 906.048 271.313 902.377 275.769 C 934.626 273.411 979.985 269.74 996.24 269.74 C 999.649 269.74 1001.748 270.002 1002.27 270.262 C 1002.795 270.79 1003.319 271.576 1003.319 272.625 C 1003.319 277.867 994.407 289.142 990.736 290.715 C 988.117 291.764 986.277 291.764 985.229 291.764 L 984.18 291.764 C 984.18 291.764 978.414 282.587 959.011 281.014 C 956.913 280.753 954.555 280.753 951.405 280.753 C 938.038 280.753 916.011 282.065 896.083 283.636 C 872.749 313.266 832.634 368.849 825.817 380.121 C 824.768 381.696 824.506 382.745 824.506 383.532 C 824.506 384.319 824.768 384.578 825.555 384.578 C 829.226 384.578 840.237 378.288 853.347 370.421 C 874.586 358.097 891.103 345.775 892.414 344.989 C 892.675 344.726 892.939 344.726 893.201 344.726 C 893.986 344.726 894.512 345.511 894.512 345.511 C 881.926 357.049 846.532 387.985 820.05 393.234 C 817.951 393.756 816.378 393.756 814.804 393.756 C 806.677 393.756 807.988 387.203 807.202 381.696 L 807.202 381.435 C 807.202 378.025 814.544 363.868 817.951 358.624 C 837.877 330.046 852.561 309.33 869.865 285.471 C 862.524 285.995 856.756 286.258 853.871 286.258 C 840.499 286.782 834.208 288.355 828.963 288.88 C 823.457 289.405 812.444 292.55 809.037 296.482 C 807.202 298.581 805.628 299.106 804.58 299.106 C 803.531 299.106 802.744 298.581 802.744 298.581 C 802.744 298.581 801.171 293.6 801.171 288.618 C 801.171 285.734 801.696 282.849 803.531 281.278 C 806.938 278.131 827.653 277.867 846.532 277.867 L 869.34 277.867 C 870.913 277.867 873.011 277.605 875.633 277.605 L 883.237 267.118 C 888.219 260.301 890.315 258.466 899.492 246.668 C 908.669 234.606 917.06 234.606 917.06 234.606 C 917.845 234.343 918.634 234.343 919.42 234.343 Z " fill="rgb(255,240,224)"/><path d=" M 764.469 308.019 C 765.256 307.494 766.304 307.234 767.353 307.234 C 772.335 307.234 780.462 311.954 782.561 317.198 L 782.561 317.458 C 782.561 321.129 765.256 340.531 765.256 341.582 C 766.567 341.582 778.366 329.779 787.804 324.016 C 792.786 321.129 796.981 320.08 800.39 320.08 C 805.109 320.08 808.78 321.918 811.663 322.705 C 815.334 324.016 816.645 325.325 819.529 325.325 C 820.84 325.325 822.152 325.062 824.249 324.539 C 826.085 324.016 827.395 323.751 828.444 323.751 C 832.115 323.751 833.426 325.586 833.426 325.586 C 833.426 325.586 832.64 325.325 831.329 325.325 C 829.493 325.325 827.133 325.586 823.462 327.158 C 822.152 327.682 820.84 327.947 819.529 327.947 C 815.072 327.947 810.09 325.847 803.536 325.847 C 800.914 325.847 797.767 326.112 794.358 327.422 C 780.988 332.143 749 371.47 743.494 375.403 C 740.872 377.238 737.464 378.288 734.055 378.288 C 730.384 378.288 726.714 376.714 725.141 373.306 C 724.879 372.783 724.617 371.992 724.617 370.946 C 724.617 362.554 736.939 343.678 743.232 334.764 C 750.311 324.801 757.127 312.476 764.469 308.019 Z " fill="rgb(255,240,224)"/><path d=" M 711.773 330.569 C 711.773 329.255 710.987 328.209 709.414 328.209 C 709.151 328.209 708.627 328.209 708.102 328.47 C 701.547 330.306 694.47 338.697 694.47 338.697 C 707.316 338.433 711.773 333.453 711.773 330.569 Z  M 672.97 370.683 C 672.97 372.783 674.279 373.307 675.592 373.567 C 679.523 373.567 738.517 343.415 738.517 343.415 L 741.925 343.679 C 741.925 343.679 683.456 376.191 672.708 380.385 C 671.133 380.911 669.561 381.172 667.988 381.172 C 662.743 381.172 657.762 378.025 657.762 370.947 C 657.762 364.655 661.433 355.214 671.919 342.368 C 685.293 326.113 698.14 320.341 707.054 320.341 C 714.657 320.341 719.64 324.538 719.64 329.519 C 719.64 330.569 719.377 331.355 719.115 332.402 C 714.657 344.726 689.749 345.775 689.749 345.775 C 676.641 360.98 672.97 367.539 672.97 370.683 Z " fill="rgb(255,240,224)"/><path d=" M 676.381 246.93 C 673.759 246.93 669.039 248.503 662.746 256.368 C 653.046 268.691 602.181 345.252 602.181 345.252 C 602.181 345.252 620.534 322.965 639.674 322.965 C 640.723 322.965 641.772 322.965 642.82 323.228 C 650.424 324.276 653.833 331.88 653.833 341.581 C 653.833 357.575 644.394 378.81 629.187 381.959 C 626.563 382.481 624.467 382.745 622.369 382.745 C 606.901 382.745 604.802 368.849 604.802 360.981 C 604.802 358.097 605.064 356 605.064 356 C 605.064 356 606.113 355.213 606.639 355.213 C 607.162 355.213 607.424 355.478 607.424 356.264 L 607.424 357.838 C 607.424 363.606 610.833 371.992 615.29 373.043 C 615.814 373.043 616.339 373.306 616.601 373.306 C 623.943 373.306 633.381 362.819 633.381 351.542 L 633.381 351.02 C 633.12 344.989 630.498 340.796 624.73 340.796 C 618.436 340.796 608.735 345.775 594.577 359.671 C 594.577 359.671 569.931 400.835 568.096 405.029 C 567.047 407.653 567.047 409.49 567.047 410.536 L 567.047 411.587 C 567.047 411.587 553.15 407.916 553.15 398.478 C 553.15 396.902 553.414 395.067 554.461 393.234 C 561.017 379.599 597.724 316.147 607.162 301.99 C 616.601 287.569 627.614 269.74 633.12 261.874 C 638.625 253.746 650.949 241.424 656.191 235.917 C 658.028 234.082 660.649 233.295 663.533 233.295 C 669.826 233.295 677.166 237.49 678.479 247.455 C 678.479 247.455 677.692 246.93 676.381 246.93 Z " fill="rgb(255,240,224)"/><path d=" M 545.026 344.201 C 545.55 343.155 545.55 342.368 545.55 341.841 C 545.55 340.795 545.026 340.27 544.239 340.27 C 541.617 340.27 536.898 343.416 533.227 347.088 C 527.46 353.116 525.623 363.342 525.623 363.342 C 525.623 363.342 542.404 351.283 545.026 344.201 Z  M 542.142 359.412 C 534.275 368.322 525.623 379.598 514.087 379.598 C 513.3 379.598 512.252 379.334 511.465 379.334 C 504.123 378.024 498.881 372.52 498.881 363.605 C 498.881 357.574 501.239 349.97 507.008 341.319 C 520.905 320.08 535.063 314.576 546.86 313.791 L 547.648 313.791 C 556.039 313.791 559.184 320.868 559.184 327.422 C 559.184 329.779 558.66 331.88 558.135 333.714 L 557.873 334.499 C 561.544 336.337 565.477 336.859 569.147 336.859 C 576.227 336.859 582.519 334.499 582.519 334.499 L 584.092 335.026 C 577.799 338.697 572.03 340.008 567.05 340.008 C 562.592 340.008 558.921 338.962 556.039 337.908 C 553.94 340.795 552.106 340.795 552.106 340.795 C 552.106 340.795 550.531 349.97 542.142 359.412 Z " fill="rgb(255,240,224)"/></g><path d=" M 1637.755 291.122 C 1643.13 291.122 1648.219 292.539 1649.351 295.086 L 1649.351 295.651 C 1649.351 301.874 1627.287 326.769 1627.287 326.769 C 1627.287 326.769 1642.279 315.453 1658.406 303.856 C 1666.891 297.913 1673.399 295.367 1678.491 295.367 C 1683.019 295.367 1686.133 297.629 1688.111 301.309 C 1688.394 301.874 1688.394 302.442 1688.394 303.006 C 1688.394 312.342 1668.025 337.517 1668.025 340.064 L 1668.025 340.348 C 1668.309 340.629 1668.874 340.913 1669.438 340.913 C 1672.835 340.913 1680.755 337.517 1692.921 329.598 C 1705.936 321.395 1713.003 317.431 1714.418 317.431 C 1714.7 317.431 1714.7 317.431 1714.7 317.715 C 1714.418 318.845 1671.138 350.247 1655.011 350.247 C 1653.033 350.247 1651.618 349.967 1650.486 348.833 C 1649.069 347.136 1648.503 345.153 1648.503 342.61 C 1648.503 331.295 1661.518 313.189 1661.518 310.359 C 1661.518 310.076 1661.232 310.076 1661.232 310.076 L 1660.667 310.076 C 1655.296 312.057 1609.75 352.794 1609.75 352.794 L 1608.899 352.794 C 1607.2 352.794 1601.828 352.51 1596.736 348.833 C 1596.172 348.55 1595.89 347.704 1595.89 346.855 C 1595.89 336.384 1624.46 296.5 1624.46 296.5 C 1626.723 292.539 1632.379 291.122 1637.755 291.122 Z " fill="rgb(255,240,224)"/><path d=" M 1755.715 301.874 C 1755.715 300.46 1754.866 299.326 1753.169 299.326 C 1752.886 299.326 1752.32 299.326 1751.755 299.612 C 1744.684 301.593 1737.042 310.643 1737.042 310.643 C 1750.905 310.359 1755.715 304.984 1755.715 301.874 Z  M 1713.85 345.154 C 1713.85 347.421 1715.262 347.986 1716.676 348.268 C 1720.921 348.268 1784.571 315.738 1784.571 315.738 L 1788.249 316.018 C 1788.249 316.018 1725.167 351.096 1713.565 355.625 C 1711.871 356.19 1710.172 356.474 1708.475 356.474 C 1702.812 356.474 1697.437 353.075 1697.437 345.439 C 1697.437 338.65 1701.398 328.464 1712.715 314.604 C 1727.142 297.064 1741.003 290.841 1750.626 290.841 C 1758.825 290.841 1764.204 295.365 1764.204 300.741 C 1764.204 301.874 1763.921 302.722 1763.64 303.855 C 1758.825 317.15 1731.952 318.281 1731.952 318.281 C 1717.811 334.689 1713.85 341.763 1713.85 345.154 Z " fill="rgb(255,240,224)"/><path d=" M 1875.379 198.053 C 1877.639 198.053 1880.468 198.9 1883.861 200.881 C 1890.653 205.125 1892.349 215.024 1892.349 218.136 L 1892.349 219.269 C 1892.068 219.269 1892.068 218.985 1892.068 218.985 C 1891.785 218.42 1890.935 218.136 1890.085 218.136 C 1887.256 218.136 1881.883 220.403 1874.81 227.189 C 1864.906 236.243 1813.988 308.945 1813.988 308.945 C 1824.736 299.612 1837.468 294.518 1845.953 294.518 C 1851.328 294.518 1854.727 296.499 1854.727 301.025 L 1854.727 301.874 C 1853.595 314.039 1815.119 328.183 1815.119 332.708 C 1815.399 335.256 1817.666 336.384 1821.626 336.384 C 1824.736 336.384 1828.98 335.821 1834.357 334.406 C 1846.802 331.295 1878.487 315.168 1878.487 315.168 L 1880.468 316.582 C 1880.468 316.582 1829.829 346.003 1812.287 346.003 C 1810.309 346.003 1808.895 345.723 1807.763 344.873 C 1804.369 342.044 1803.237 338.934 1803.237 336.103 C 1803.237 330.165 1807.484 325.07 1807.484 325.07 C 1822.476 319.698 1829.829 311.212 1829.829 307.248 C 1829.829 305.835 1829.264 305.268 1827.565 305.268 C 1826.436 305.268 1825.586 305.268 1824.171 305.835 C 1812.573 310.075 1784.003 353.075 1775.229 357.039 C 1773.818 357.604 1772.403 357.888 1771.268 357.888 C 1765.615 357.888 1763.355 351.381 1762.22 348.268 L 1762.22 347.986 C 1762.22 342.61 1799.562 290.274 1809.461 278.393 C 1819.929 265.948 1824.171 254.348 1830.112 248.408 C 1836.339 242.467 1838.317 240.769 1842.278 234.546 C 1846.239 228.038 1865.755 201.729 1865.755 201.729 C 1868.865 199.75 1871.697 198.053 1875.379 198.053 Z " fill="rgb(255,240,224)"/><path d=" M 1914.409 299.607 C 1914.979 299.323 1915.551 299.323 1915.817 299.323 C 1917.529 299.323 1918.367 300.466 1918.367 301.874 C 1918.367 304.992 1913.554 310.359 1899.706 310.643 C 1899.706 310.643 1907.332 301.588 1914.409 299.607 Z  M 2114.492 320.962 C 2102.253 305.769 2086.571 293.877 2066.948 292.064 C 2046.163 290.165 2025.098 295.895 2006.252 303.727 C 1965.318 320.758 1924.302 356.35 1877.778 347.722 L 1877.759 347.722 C 1877.025 347.295 1876.495 346.539 1876.495 345.15 C 1876.495 341.769 1880.471 334.69 1894.607 318.269 C 1894.607 318.269 1921.486 317.15 1926.303 303.853 C 1926.585 302.73 1926.849 301.874 1926.849 300.752 C 1926.849 295.365 1921.486 290.838 1913.287 290.838 C 1903.664 290.838 1889.791 297.057 1875.373 314.601 C 1864.056 328.467 1860.095 338.646 1860.095 345.439 C 1860.095 352.33 1862.478 355.064 1867.339 357.888 C 1907.974 372.169 1954.179 336.034 1990.322 319.292 C 2010.818 309.805 2032.335 300.28 2055.098 298.221 C 2078.065 296.163 2097.38 306.177 2111.594 323.842 C 2113.248 325.878 2116.123 322.983 2114.492 320.962 Z " fill="rgb(255,240,224)"/><g style="isolation:isolate"/></svg>
