<?xml version="1.0" encoding="UTF-8" standalone="no"?>
<!-- Generator: Gravit.io -->
<svg xmlns="http://www.w3.org/2000/svg" xmlns:xlink="http://www.w3.org/1999/xlink" style="isolation:isolate" viewBox="0 0 128 128" width="128pt" height="128pt"><g style="isolation:isolate"/><g style="isolation:isolate"/><g style="isolation:isolate"><path d=" M 87.028 86.342 C 100.75 68.789 113.821 46.368 119.634 35.499 L 119.634 35.499 C 124.021 44.049 126.5 53.737 126.5 64 C 126.5 98.495 98.495 126.5 64 126.5 C 29.505 126.5 1.5 98.495 1.5 64 C 1.5 57.504 2.493 51.238 4.347 45.352 L 4.347 45.352 C 6.302 48.032 10.51 49.791 16.148 49.888 L 16.513 49.888 C 27.116 49.888 50.598 39.694 50.598 39.694 C 50.598 39.694 46.365 45.929 40.722 54.484 C 36.991 60.127 34.078 67.18 34.078 71.641 C 34.078 73.961 34.852 75.6 36.718 75.964 C 36.991 76.009 37.309 76.055 37.582 76.055 C 43.043 76.055 51.189 67.317 58.242 60.264 C 54.266 66.899 50.181 75.939 47.766 84.535 C 47.766 84.535 47.767 84.535 47.767 84.534 Q 46.358 89.812 45.952 93.031 Q 45.952 93.031 45.952 93.032 C 45.719 94.761 45.591 96.423 45.591 97.989 C 45.591 105.497 48.459 110.776 56.104 110.776 C 56.695 110.776 57.287 110.731 57.924 110.686 C 64.317 110.053 72.164 103.62 80.162 94.617 C 80.162 94.617 80.162 94.617 80.162 94.617 L 80.162 94.617 Q 81.298 93.552 87.028 86.342 L 87.028 86.342 Z  M 84.583 84.991 C 84.583 84.991 84.583 84.991 84.583 84.991 C 90.336 77.951 96.099 69.792 101.201 61.492 C 111.243 45.122 113.585 34.195 114.911 27.751 C 103.571 11.866 84.987 1.5 64 1.5 C 36.375 1.5 12.912 19.461 4.664 44.333 C 5.67 45.811 7.511 47.275 10.597 48.341 C 11.552 48.659 12.69 48.796 13.964 48.796 C 27.207 48.796 56.604 33.506 60.018 33.506 C 60.153 33.506 60.245 33.506 60.29 33.551 C 60.882 34.006 61.291 34.461 61.291 35.235 C 61.291 36.6 59.972 38.966 55.876 44.427 C 49.914 52.346 40.313 67.954 40.313 71.368 C 40.313 71.641 40.358 71.868 40.494 71.959 C 40.54 72.005 40.631 72.005 40.676 72.005 C 43.179 72.005 60.609 55.349 66.206 49.934 C 66.206 49.934 68.345 47.021 69.846 47.021 L 69.983 47.021 C 70.575 47.112 70.711 48.113 70.711 49.388 C 70.711 51.481 70.256 54.166 70.256 54.166 C 66.964 57.458 59.305 72.473 55.224 85.544 C 55.224 85.544 55.224 85.544 55.224 85.543 Q 55.224 85.544 55.224 85.544 Q 54.149 88.936 52.995 94.459 C 53.001 94.455 53.007 94.452 53.013 94.448 C 52.717 96.211 52.554 97.849 52.554 99.309 C 52.554 102.221 53.191 104.451 54.784 105.543 C 55.648 106.135 56.695 106.453 57.832 106.453 C 62.889 106.453 70.335 100.806 78.291 92.237 L 78.291 92.237 L 78.291 92.237 C 78.291 92.237 78.291 92.237 78.291 92.237 L 78.291 92.237 Q 82.417 87.828 84.583 84.991 Z " fill-rule="evenodd" fill="rgb(255,240,224)"/></g></svg>
