<svg id="wlogowhite" xmlns="http://www.w3.org/2000/svg" viewBox="0 0 128 128" width="128" height="128" class="a"><style>.a{isolation:isolate;}</style><g class="a"><path d="M87 86.3C100.8 68.8 113.8 46.4 119.6 35.5L119.6 35.5C124 44 126.5 53.7 126.5 64 126.5 98.5 98.5 126.5 64 126.5 29.5 126.5 1.5 98.5 1.5 64 1.5 57.5 2.5 51.2 4.3 45.4L4.3 45.4C6.3 48 10.5 49.8 16.1 49.9L16.5 49.9C27.1 49.9 50.6 39.7 50.6 39.7 50.6 39.7 46.4 45.9 40.7 54.5 37 60.1 34.1 67.2 34.1 71.6 34.1 74 34.9 75.6 36.7 76 37 76 37.3 76.1 37.6 76.1 43 76.1 51.2 67.3 58.2 60.3 54.3 66.9 50.2 75.9 47.8 84.5 47.8 84.5 47.8 84.5 47.8 84.5Q46.4 89.8 46 93 46 93 46 93C45.7 94.8 45.6 96.4 45.6 98 45.6 105.5 48.5 110.8 56.1 110.8 56.7 110.8 57.3 110.7 57.9 110.7 64.3 110.1 72.2 103.6 80.2 94.6 80.2 94.6 80.2 94.6 80.2 94.6L80.2 94.6Q81.3 93.6 87 86.3L87 86.3ZM84.6 85C84.6 85 84.6 85 84.6 85 90.3 78 96.1 69.8 101.2 61.5 111.2 45.1 113.6 34.2 114.9 27.8 103.6 11.9 85 1.5 64 1.5 36.4 1.5 12.9 19.5 4.7 44.3 5.7 45.8 7.5 47.3 10.6 48.3 11.6 48.7 12.7 48.8 14 48.8 27.2 48.8 56.6 33.5 60 33.5 60.2 33.5 60.2 33.5 60.3 33.6 60.9 34 61.3 34.5 61.3 35.2 61.3 36.6 60 39 55.9 44.4 49.9 52.3 40.3 68 40.3 71.4 40.3 71.6 40.4 71.9 40.5 72 40.5 72 40.6 72 40.7 72 43.2 72 60.6 55.3 66.2 49.9 66.2 49.9 68.3 47 69.8 47L70 47C70.6 47.1 70.7 48.1 70.7 49.4 70.7 51.5 70.3 54.2 70.3 54.2 67 57.5 59.3 72.5 55.2 85.5 55.2 85.5 55.2 85.5 55.2 85.5Q55.2 85.5 55.2 85.5 54.1 88.9 53 94.5C53 94.5 53 94.5 53 94.4 52.7 96.2 52.6 97.8 52.6 99.3 52.6 102.2 53.2 104.5 54.8 105.5 55.6 106.1 56.7 106.5 57.8 106.5 62.9 106.5 70.3 100.8 78.3 92.2L78.3 92.2 78.3 92.2C78.3 92.2 78.3 92.2 78.3 92.2L78.3 92.2Q82.4 87.8 84.6 85Z" fill="rgb(255,240,224)"/></g></svg>
