<svg xmlns="http://www.w3.org/2000/svg" xmlns:xlink="http://www.w3.org/1999/xlink" style="isolation:isolate" width="32pt" height="32pt" viewBox="522 225 32 32"><defs><clipPath id="_clipPath_NO0j9ZltkmbetWuwNfb8B2hRS6wkBj5i"><rect width="32" height="32" x="522" y="225"/></clipPath></defs><g clip-path="url(#_clipPath_NO0j9ZltkmbetWuwNfb8B2hRS6wkBj5i)"><circle cx="538" cy="241" r="16" fill="#F5F5F5" vector-effect="non-scaling-stroke"/><clipPath id="_clipPath_1P3trewRySKkXsrVT4l7IEuWxDMOQyAj"><rect width="31.03" height="31.03" x="522.485" y="225.485" fill="#FFF" transform="matrix(1,0,0,1,0,0)"/></clipPath><g clip-path="url(#_clipPath_1P3trewRySKkXsrVT4l7IEuWxDMOQyAj)"><g><path fill="#6660E0" d="M 543.71 246.536 C 547.136 242.192 550.363 236.631 551.803 233.925 L 551.803 233.925 C 552.895 236.035 553.515 238.443 553.515 241 C 553.515 249.564 546.564 256.515 538 256.515 C 529.436 256.515 522.485 249.564 522.485 241 C 522.485 239.386 522.733 237.822 523.18 236.382 L 523.18 236.382 C 523.677 237.028 524.719 237.475 526.11 237.499 L 526.208 237.499 C 528.84 237.499 534.674 234.968 534.674 234.968 C 534.674 234.968 533.631 236.506 532.216 238.642 C 531.297 240.032 530.578 241.794 530.578 242.887 C 530.578 243.482 530.776 243.88 531.223 243.979 C 531.297 243.979 531.372 244.004 531.447 244.004 C 532.787 244.004 534.822 241.819 536.56 240.082 C 535.592 241.72 534.574 243.954 533.979 246.089 C 533.979 246.089 533.979 246.089 533.979 246.089 Q 533.631 247.405 533.532 248.199 Q 533.532 248.199 533.532 248.199 C 533.457 248.646 533.433 249.043 533.433 249.44 C 533.433 251.302 534.152 252.618 536.039 252.618 C 536.188 252.618 536.337 252.593 536.485 252.593 C 538.075 252.444 540.035 250.831 542.021 248.597 C 542.021 248.597 542.021 248.597 542.021 248.597 L 542.021 248.597 Q 542.295 248.348 543.71 246.536 L 543.71 246.536 Z M 543.114 246.213 C 543.114 246.213 543.114 246.213 543.114 246.213 C 544.529 244.475 545.969 242.44 547.234 240.379 C 549.717 236.309 550.313 233.602 550.635 232.014 C 547.831 228.066 543.213 225.485 538 225.485 C 531.148 225.485 525.314 229.953 523.279 236.11 C 523.527 236.482 523.974 236.855 524.744 237.103 C 524.992 237.202 525.265 237.227 525.588 237.227 C 528.864 237.227 536.163 233.429 537.007 233.429 C 537.056 233.429 537.056 233.429 537.082 233.454 C 537.23 233.553 537.33 233.677 537.33 233.85 C 537.33 234.199 537.007 234.794 535.989 236.134 C 534.499 238.096 532.117 241.993 532.117 242.837 C 532.117 242.887 532.141 242.961 532.166 242.986 C 532.166 242.986 532.192 242.986 532.216 242.986 C 532.836 242.986 537.156 238.84 538.546 237.499 C 538.546 237.499 539.068 236.78 539.44 236.78 L 539.489 236.78 C 539.639 236.805 539.663 237.053 539.663 237.375 C 539.663 237.897 539.564 238.567 539.564 238.567 C 538.745 239.386 536.833 243.11 535.815 246.337 C 535.815 246.337 535.815 246.337 535.815 246.337 Q 535.815 246.337 535.815 246.337 Q 535.543 247.181 535.269 248.571 C 535.269 248.571 535.269 248.571 535.269 248.546 C 535.195 248.993 535.17 249.391 535.17 249.763 C 535.17 250.483 535.319 251.054 535.716 251.302 C 535.915 251.451 536.188 251.55 536.461 251.55 C 537.727 251.55 539.564 250.136 541.55 248 L 541.55 248 L 541.55 248 C 541.55 248 541.55 248 541.55 248 L 541.55 248 Q 542.567 246.908 543.114 246.213 Z"/></g></g></g></svg>